<svg xmlns="http://www.w3.org/2000/svg" viewBox="0 0 126.08 249.91"><defs><style>.cls-1{fill:#fdfefe;}</style></defs><title>logo</title><g id="Layer_1" data-name="Layer 1"><path class="cls-1" d="M174.72,71.68A38.32,38.32,0,0,0,213,33.36H187.49a38.32,38.32,0,0,0-38,33.4v-3.4h0V62.5h0C149,41.74,132.42,25,112,25h0C98.16,25,87,36.48,87,50.59V63.36H136.5v63.1H115.7v38.33h-7.19v47.9H97.74V275h93.4V212.69H180.36v-47.9h-7.18V126.46H149.5V71.68Z" transform="translate(-86.96 -25.04)"/><path class="cls-1" d="M150.83,94.53h0a17.16,17.16,0,1,0,34.32,0h0a17.16,17.16,0,1,0-34.32,0Z" transform="translate(-86.96 -25.04)"/><path class="cls-1" d="M101.73,88h0a17.17,17.17,0,1,0,34.33,0h0a17.17,17.17,0,0,0-34.33,0Z" transform="translate(-86.96 -25.04)"/></g></svg>